<svg width="18" height="17" viewBox="0 0 18 17" fill="none" xmlns="http://www.w3.org/2000/svg">
<path fill-rule="evenodd" clip-rule="evenodd" d="M9.51149 0.67554C9.21057 0.441487 8.78918 0.441487 8.48826 0.67554L0.988258 6.50887C0.624969 6.79143 0.559524 7.31499 0.842082 7.67828C1.12464 8.04157 1.6482 8.10702 2.01149 7.82446L2.33317 7.57427V14.3333C2.33317 15.4379 3.2286 16.3333 4.33317 16.3333H13.6665C14.7711 16.3333 15.6665 15.4379 15.6665 14.3333V7.59313C15.6665 7.5868 15.6665 7.58046 15.6664 7.57414L15.9883 7.82446C16.3515 8.10702 16.8751 8.04157 17.1577 7.67828C17.4402 7.31499 17.3748 6.79143 17.0115 6.50887L9.51149 0.67554Z" fill="#191632"/>
<path d="M7.33301 11.5C7.33301 10.9477 7.78072 10.5 8.33301 10.5H9.66634C10.2186 10.5 10.6663 10.9477 10.6663 11.5V14.6667H7.33301V11.5Z" fill="white"/>
</svg>
