<svg width="26" height="26" viewBox="0 0 26 26" fill="none" xmlns="http://www.w3.org/2000/svg">
<path opacity="0.5" d="M0.5 13.2549C0.5 10.3944 0.5 8.96409 1.149 7.77843C1.798 6.59276 2.98368 5.85689 5.35504 4.38516L7.85504 2.83359C10.3617 1.27786 11.6151 0.5 13 0.5C14.3849 0.5 15.6383 1.27786 18.145 2.83359L20.645 4.38516C23.0163 5.85689 24.202 6.59276 24.851 7.77843C25.5 8.96409 25.5 10.3944 25.5 13.2549V15.1562C25.5 20.0323 25.5 22.4704 24.0355 23.9852C22.5711 25.5 20.214 25.5 15.5 25.5H10.5C5.78595 25.5 3.42893 25.5 1.96447 23.9852C0.5 22.4704 0.5 20.0323 0.5 15.1562V13.2549Z" fill="#97A8A8"/>
</svg>
