<svg width="30" height="30" viewBox="0 0 30 30" fill="none" xmlns="http://www.w3.org/2000/svg">
<path opacity="0.5" d="M3.75 16.2961C3.75 14.9173 3.75 14.2279 4.2408 13.8258C4.41505 13.6831 4.62684 13.5688 4.86287 13.4902C5.52766 13.2689 6.40136 13.4869 8.14877 13.9229C9.48283 14.2557 10.1499 14.4221 10.8239 14.4049C11.0714 14.3986 11.3175 14.3739 11.5586 14.3313C12.2149 14.2151 12.7999 13.9232 13.97 13.3393L15.6979 12.477C17.1967 11.7291 17.9461 11.3551 18.8063 11.2689C19.6666 11.1827 20.521 11.3959 22.2299 11.8222L23.6859 12.1855C24.9234 12.4943 25.5422 12.6487 25.8961 13.0163C26.25 13.3838 26.25 13.872 26.25 14.8485V22.454C26.25 23.8327 26.25 24.5221 25.7592 24.9242C25.5849 25.0669 25.3732 25.1812 25.1371 25.2598C24.4723 25.4811 23.5986 25.2631 21.8512 24.8272C20.5172 24.4943 19.8501 24.3279 19.1761 24.3451C18.9286 24.3514 18.6825 24.3761 18.4414 24.4187C17.7851 24.5349 17.2001 24.8268 16.03 25.4107L14.3021 26.273C12.8033 27.0209 12.0539 27.3949 11.1937 27.4811C10.3334 27.5673 9.47899 27.3541 7.77011 26.9278L6.31415 26.5645C5.07661 26.2557 4.45784 26.1013 4.10392 25.7338C3.75 25.3662 3.75 24.878 3.75 23.9015V16.2961Z" fill="#97A8A8"/>
<path fill-rule="evenodd" clip-rule="evenodd" d="M15 2.5C10.8579 2.5 7.5 5.69014 7.5 9.62538C7.5 13.5298 9.89374 18.0859 13.6285 19.7151C14.4991 20.095 15.5009 20.095 16.3715 19.7151C20.1063 18.0859 22.5 13.5298 22.5 9.62538C22.5 5.69014 19.1421 2.5 15 2.5ZM15 12.5C16.3807 12.5 17.5 11.3807 17.5 10C17.5 8.61929 16.3807 7.5 15 7.5C13.6193 7.5 12.5 8.61929 12.5 10C12.5 11.3807 13.6193 12.5 15 12.5Z" fill="#97A8A8"/>
</svg>
