<svg width="45" height="29" viewBox="0 0 45 29" fill="none" xmlns="http://www.w3.org/2000/svg">
<g clip-path="url(#clip0_7571_2226)">
<path d="M12.2247 26.8477C11.9495 26.6916 11.6563 26.6134 10.0766 26.5218C9.39974 26.4826 8.83839 26.4613 8.44845 26.4492H2.41369V4.30919C2.41369 2.99148 2.45947 1.66366 1.16901 0.89403C0.920285 0.753131 0.653933 0.645915 0.376953 0.575195L0.376953 28.4859H13.3894C13.0576 27.4029 12.4922 26.9993 12.2247 26.8477Z" fill="#F1F1F1"/>
<path d="M44.6047 26.55C44.5619 26.1837 44.4164 25.6032 42.832 23.6667C42.4833 23.2406 42.1881 22.8993 41.9934 22.6777L37.0147 17.6991C36.154 16.8382 35.2801 15.9919 34.4171 15.1341C34.2319 14.95 33.5847 14.4965 33.5847 14.2291C33.5847 14.0063 34.0743 13.6617 34.2236 13.5124C34.8588 12.8774 35.5117 12.2586 36.1423 11.6198C38.3393 9.39456 40.5733 7.20055 42.7854 4.98836C43.3953 4.37829 44.1033 3.82007 44.3349 2.95162C44.4544 2.50285 44.4073 2.01589 44.4073 1.55608C44.4073 1.24411 44.4906 0.788145 44.3696 0.5C40.9309 3.93866 37.4243 7.31366 34.0317 10.7982C33.2079 11.644 32.3431 12.4513 31.508 13.2861C31.3194 13.4748 30.6484 13.953 30.6484 14.2291C30.6484 14.4972 31.2877 14.9517 31.4703 15.1343C32.3193 15.9833 33.186 16.8123 34.0351 17.6613C38.1188 21.7454 40.2058 23.742 41.1949 24.7899C41.4632 25.0741 42.2048 25.8643 43.2553 26.8769C43.7426 27.3467 44.1482 27.7214 44.4073 27.9581C44.6452 27.3314 44.6393 26.8461 44.6047 26.55Z" fill="#F1F1F1"/>
<path d="M27.5427 21.4707V17.397H22.1493C21.1717 17.397 20.1363 17.3009 19.1695 17.4509C18.5064 17.5513 17.8673 17.7724 17.2839 18.1032C14.1665 19.8856 13.6129 24.0682 15.9367 26.7132C17.1851 28.1339 18.9241 28.4861 20.7162 28.4861C21.5136 28.4861 22.3469 28.5573 23.1301 28.3771C25.3109 27.8756 26.9888 26.1966 27.4424 23.9977C27.612 23.1749 27.5427 22.3055 27.5427 21.4707ZM22.4133 26.3953C21.9616 26.4602 21.4737 26.4115 21.0178 26.4115C19.5937 26.4115 18.3253 26.2935 17.3329 25.1292C15.5744 23.0663 16.9777 19.8426 19.5847 19.4878C20.062 19.4225 20.5737 19.4716 21.0555 19.4716C22.4698 19.4716 23.6775 19.5669 24.6699 20.7166C26.4628 22.7934 25.0187 26.022 22.4133 26.3953Z" fill="#F1F1F1"/>
<path d="M27.4422 5.12181C27.0387 3.10308 25.5833 1.37355 23.5744 0.800441C22.6525 0.537262 21.7321 0.558002 20.7831 0.558002C18.8669 0.558002 17.0793 0.983314 15.7834 2.51941C13.6712 5.02264 14.1881 8.99637 16.9738 10.7907C17.6486 11.2233 18.4067 11.5095 19.1991 11.6308C20.1542 11.779 21.1756 11.6847 22.1408 11.6847H27.5345V7.61108C27.5345 6.7895 27.6039 5.93133 27.4422 5.12181ZM22.556 9.56722C22.0353 9.64602 21.4972 9.6102 20.9716 9.6102C19.6712 9.6102 18.4703 9.56495 17.505 8.55333C16.122 7.1047 16.2796 4.71723 17.8036 3.43526C18.344 2.98054 18.9993 2.74752 19.6893 2.64874C20.1293 2.58577 20.6032 2.63253 21.047 2.63253C22.3678 2.63253 23.6513 2.71699 24.5811 3.80176C26.2933 5.79823 25.2651 9.15849 22.556 9.56722Z" fill="#F1F1F1"/>
</g>
<defs>
<clipPath id="clip0_7571_2226">
<rect width="44.2451" height="28" fill="white" transform="translate(0.376953 0.5)"/>
</clipPath>
</defs>
</svg>
